/* XPM */
static char * bottom_left_active_xpm[] = {
"6 4 8 1",
" 	c None",
".	c #6D6D6D",
"+	c #B0B0B0",
"@	c #B5B5B5",
"#	c #8B8B8B",
"$	c #A9A9A9",
"%	c #818181",
"&	c #959595",
".+@@@@",
" .#$@@",
"  ..%&",
"    .."};
