/* XPM */
static char * bottom_right_active_xpm[] = {
"6 4 8 1",
" 	c None",
".	c #B5B5B5",
"+	c #B0B0B0",
"@	c #6D6D6D",
"#	c #A9A9A9",
"$	c #8B8B8B",
"%	c #959595",
"&	c #818181",
"....+@",
"..#$@ ",
"%&@@  ",
"@@    "};
