/* XPM */
static char * copy of close_inactive_xpm[] = {
"16 22 93 2",
"  	c None",
". 	c #6D6D6D",
"+ 	c #E2E2E2",
"@ 	c #B0B0B0",
"# 	c #B5B5B5",
"$ 	c #B4B2B2",
"% 	c #B1ABAB",
"& 	c #B4B0B0",
"* 	c #B0A9A9",
"= 	c #A89C9C",
"- 	c #A18D8D",
"; 	c #ADA3A3",
"> 	c #A59999",
", 	c #9D8C8C",
"' 	c #ABA2A2",
") 	c #AFAEAE",
"! 	c #A49898",
"~ 	c #978484",
"{ 	c #958484",
"] 	c #9B8989",
"^ 	c #A89F9F",
"/ 	c #AFACAC",
"( 	c #A19696",
"_ 	c #938484",
": 	c #918484",
"< 	c #968787",
"[ 	c #A59E9E",
"} 	c #ABA4A4",
"| 	c #9A8888",
"1 	c #998888",
"2 	c #9E8D8D",
"3 	c #AAA1A1",
"4 	c #A69B9B",
"5 	c #988888",
"6 	c #978888",
"7 	c #958888",
"8 	c #948888",
"9 	c #998D8D",
"0 	c #AFADAD",
"a 	c #AFABAB",
"b 	c #A19595",
"c 	c #9B8A8A",
"d 	c #958A8A",
"e 	c #A5A0A0",
"f 	c #968989",
"g 	c #A59F9F",
"h 	c #AAA7A7",
"i 	c #9E9292",
"j 	c #968484",
"k 	c #948484",
"l 	c #938585",
"m 	c #A09A9A",
"n 	c #AFAFAF",
"o 	c #B4B3B3",
"p 	c #A49999",
"q 	c #978989",
"r 	c #A7A0A0",
"s 	c #B4B4B4",
"t 	c #A79E9E",
"u 	c #978A8A",
"v 	c #A6A0A0",
"w 	c #A69E9E",
"x 	c #968888",
"y 	c #938888",
"z 	c #948989",
"A 	c #A7A2A2",
"B 	c #948585",
"C 	c #928484",
"D 	c #9D9595",
"E 	c #9C9494",
"F 	c #908484",
"G 	c #8F8484",
"H 	c #8E8484",
"I 	c #8F8686",
"J 	c #A7A5A5",
"K 	c #B0AEAE",
"L 	c #A09797",
"M 	c #A39C9C",
"N 	c #B3B2B2",
"O 	c #9F9999",
"P 	c #928888",
"Q 	c #918888",
"R 	c #A29D9D",
"S 	c #9F9797",
"T 	c #A29B9B",
"U 	c #B2B2B2",
"V 	c #9F9A9A",
"W 	c #A19C9C",
"X 	c #B3B3B3",
"Y 	c #ADACAC",
"Z 	c #A6A2A2",
"` 	c #B1B0B0",
" .	c #A7A4A4",
". . . . . . . . . . . . . . . . ",
"+ + + + + + + + + + + + + + + + ",
"@ @ @ @ @ @ @ @ @ @ @ @ @ @ @ @ ",
"# # # # # # # # # # # # # # # # ",
"# # # $ % # # # # # & * # # # # ",
"# # $ = - ; # # # & > , ' # # # ",
"@ ) ! ~ { ] ^ @ / ( _ : < [ @ @ ",
"# } | 1 | | 2 3 4 5 6 7 8 9 0 # ",
"# a b 1 | | | c 1 5 6 7 d e # # ",
"# # / ( | | | | 1 5 6 f g # # # ",
"@ @ @ h i ~ ~ j j k l m n @ @ @ ",
"# # # o p | | 1 1 5 q r # # # # ",
"# # s t | 1 1 1 5 6 7 u v # # # ",
"# s w 5 5 5 5 6 x x 8 y z g # # ",
"@ A B _ _ _ C D E F F G H I J @ ",
"# K L 7 7 7 M N @ O P P Q R s # ",
"# # K S 8 T U # # @ V Q W X # # ",
"# s X Y Z ` # s s # `  .@ X s # ",
"@ @ @ @ @ @ @ @ @ @ @ @ @ @ @ @ ",
"# # # # # # # # # # # # # # # # ",
"# # # # # # # # # # # # # # # # ",
"# # # # # # # # # # # # # # # # "};
