/* XPM */
static char * close_active_xpm[] = {
"16 22 106 2",
"  	c None",
". 	c #6D6D6D",
"+ 	c #E2E2E2",
"@ 	c #C5C5C5",
"# 	c #C3C3C3",
"$ 	c #C2C2C2",
"% 	c #A79393",
"& 	c #A28D8D",
"* 	c #B4A7A7",
"= 	c #937C7C",
"- 	c #B8B0B0",
"; 	c #C1C1C1",
"> 	c #A89898",
", 	c #735151",
"' 	c #6C4C4C",
") 	c #A08B8B",
"! 	c #B3A9A9",
"~ 	c #795E5E",
"{ 	c #5F4343",
"] 	c #826B6B",
"^ 	c #B7B0B0",
"/ 	c #C0C0C0",
"( 	c #BAB8B8",
"_ 	c #795B5B",
": 	c #644141",
"< 	c #664242",
"[ 	c #704D4D",
"} 	c #927C7C",
"| 	c #7F6464",
"1 	c #5F3F3F",
"2 	c #593D3D",
"3 	c #5D4545",
"4 	c #968A8A",
"5 	c #BFBFBF",
"6 	c #BEBDBD",
"7 	c #9F9494",
"8 	c #694747",
"9 	c #684242",
"0 	c #684141",
"a 	c #6B4646",
"b 	c #664343",
"c 	c #5A3F3F",
"d 	c #7B6C6C",
"e 	c #B7B5B5",
"f 	c #BEBEBE",
"g 	c #BBBBBB",
"h 	c #9D9191",
"i 	c #674141",
"j 	c #644040",
"k 	c #614242",
"l 	c #7A6868",
"m 	c #B5B4B4",
"n 	c #B3ADAD",
"o 	c #745555",
"p 	c #664141",
"q 	c #624040",
"r 	c #614444",
"s 	c #887878",
"t 	c #BDBDBD",
"u 	c #B9B6B6",
"v 	c #816A6A",
"w 	c #644242",
"x 	c #623F3F",
"y 	c #613F3F",
"z 	c #604848",
"A 	c #8D8181",
"B 	c #BCBCBC",
"C 	c #BABABA",
"D 	c #7F6C6C",
"E 	c #5E4040",
"F 	c #5F3E3E",
"G 	c #634949",
"H 	c #5C4242",
"I 	c #563B3B",
"J 	c #513A3A",
"K 	c #574343",
"L 	c #887F7F",
"M 	c #B8B8B8",
"N 	c #7F6E6E",
"O 	c #583C3C",
"P 	c #6B5454",
"Q 	c #A8A4A4",
"R 	c #958D8D",
"S 	c #543F3F",
"T 	c #4D3838",
"U 	c #584747",
"V 	c #969090",
"W 	c #B9B9B9",
"X 	c #B0ADAD",
"Y 	c #7C6C6C",
"Z 	c #685555",
"` 	c #A8A5A5",
" .	c #B7B6B6",
"..	c #958F8F",
"+.	c #645555",
"@.	c #918B8B",
"#.	c #B1B1B1",
"$.	c #A4A3A3",
"%.	c #A4A1A1",
"&.	c #B6B6B6",
"*.	c #B7B7B7",
"=.	c #B4B4B4",
"-.	c #A5A4A4",
";.	c #A9A9A9",
">.	c #919191",
",.	c #D5D5D5",
". . . . . . . . . . . . . . . . ",
"+ + + + + + + + + + + + + + + + ",
"@ @ @ @ @ @ @ @ @ @ @ @ @ @ @ @ ",
"# # # # # # # # # # # # # # # # ",
"$ $ $ $ $ $ $ $ $ $ $ $ $ $ $ $ ",
"$ $ $ $ % & $ $ $ * = - $ $ $ $ ",
"; ; ; > , ' ) ; ! ~ { ] ^ ; ; ; ",
"/ / ( _ : < [ } | 1 2 3 4 / / / ",
"5 5 6 7 8 9 0 a b 1 c d e 5 5 5 ",
"f f f g h a 9 i j k l m f f f f ",
"f f f f n o i p q r s 6 f f f f ",
"t t t u v w x y 1 2 z A B t t t ",
"B B C D E F F G H I J K L B B B ",
"g g M N O O P Q R S T U V g g g ",
"C C W X Y Z ` C  ...+.@.W C C C ",
"W W M #.$.%.M &.*.=.-.;.=.W W W ",
"M M M *.*.*.M M M M *.*.*.M M M ",
"*.*.*.*.*.*.*.*.*.*.*.*.*.*.*.*.",
"&.&.&.&.&.&.&.&.&.&.&.&.&.&.&.&.",
">.>.>.>.>.>.>.>.>.>.>.>.>.>.>.>.",
",.,.,.,.,.,.,.,.,.,.,.,.,.,.,.,.",
"&.&.&.&.&.&.&.&.&.&.&.&.&.&.&.&."};
