/* XPM */
static char * close_pressed_xpm[] = {
"16 22 114 2",
"  	c None",
". 	c #6D6D6D",
"+ 	c #E2E2E2",
"@ 	c #C5C5C5",
"# 	c #C3C3C3",
"$ 	c #C2C2C2",
"% 	c #C6B8B6",
"& 	c #C2C2C1",
"* 	c #C5BDBC",
"= 	c #C9877C",
"- 	c #C85B49",
"; 	c #CE9D95",
"> 	c #B3695C",
", 	c #B75949",
"' 	c #C9B4B1",
") 	c #C1C1C1",
"! 	c #C18980",
"~ 	c #A52612",
"{ 	c #941500",
"] 	c #B34533",
"^ 	c #C59B95",
"/ 	c #C0C0C0",
"( 	c #B36B60",
"_ 	c #8F1400",
": 	c #721000",
"< 	c #A15447",
"[ 	c #C5ACA8",
"} 	c #BCAFAD",
"| 	c #A94E3F",
"1 	c #961500",
"2 	c #9C1600",
"3 	c #9E1600",
"4 	c #AF4533",
"5 	c #B0594B",
"6 	c #971702",
"7 	c #841200",
"8 	c #761000",
"9 	c #670F01",
"0 	c #A98983",
"a 	c #BFBFBF",
"b 	c #AD8A84",
"c 	c #9A3626",
"d 	c #9F1600",
"e 	c #A11700",
"f 	c #9E1701",
"g 	c #911400",
"h 	c #861300",
"i 	c #90645D",
"j 	c #BDBDBD",
"k 	c #BEBEBE",
"l 	c #AE8C86",
"m 	c #A03A28",
"n 	c #95635B",
"o 	c #BBBBBB",
"p 	c #AB574A",
"q 	c #9F1802",
"r 	c #991600",
"s 	c #8E1400",
"t 	c #8C2514",
"u 	c #AD8B85",
"v 	c #AE746A",
"w 	c #9D1D08",
"x 	c #771100",
"y 	c #823327",
"z 	c #A88A85",
"A 	c #BCBCBC",
"B 	c #A5776F",
"C 	c #8B200E",
"D 	c #8C1400",
"E 	c #871300",
"F 	c #842414",
"G 	c #6E0F00",
"H 	c #620E00",
"I 	c #713026",
"J 	c #A18C89",
"K 	c #B6B1B0",
"L 	c #96594F",
"M 	c #7E1200",
"N 	c #811200",
"O 	c #7A1100",
"P 	c #92574E",
"Q 	c #A18783",
"R 	c #7D3B31",
"S 	c #630E00",
"T 	c #5B0D00",
"U 	c #56170D",
"V 	c #947F7B",
"W 	c #BABABA",
"X 	c #AEA19F",
"Y 	c #8C4E43",
"Z 	c #8A544B",
"` 	c #AFAAA9",
" .	c #A3918E",
"..	c #713B33",
"+.	c #54140A",
"@.	c #8A6D69",
"#.	c #B9B9B9",
"$.	c #B6B6B6",
"%.	c #B3B3B3",
"&.	c #A39896",
"*.	c #906E69",
"=.	c #A9A2A1",
"-.	c #B5B5B5",
";.	c #B4B4B4",
">.	c #9C908E",
",.	c #8B7774",
"'.	c #AFAFAF",
").	c #B7B7B7",
"!.	c #B8B8B8",
"~.	c #B2B2B2",
"{.	c #B0B0B0",
"].	c #AEADAD",
"^.	c #919191",
"/.	c #D5D5D5",
". . . . . . . . . . . . . . . . ",
"+ + + + + + + + + + + + + + + + ",
"@ @ @ @ @ @ @ @ @ @ @ @ @ @ @ @ ",
"# # # # # # # # # # # # # # # # ",
"$ $ $ $ $ % $ $ $ $ & * $ $ $ $ ",
"$ $ $ $ = - ; $ $ & > , ' $ $ $ ",
") ) ) ! ~ { ] ^ / ( _ : < [ ) ) ",
"/ / } | 1 2 3 4 5 6 7 8 9 0 / / ",
"a a a b c d e d f g h 8 i j a a ",
"k k k k l m d e 3 { 7 n o k k k ",
"k k k k k p q d r s t u k k k k ",
"j j j j v w 1 1 _ h x y z j j j ",
"A A A B C D D E F x G H I J A A ",
"o o K L M N O P Q R S T U V o o ",
"W W W X Y : Z ` W  ...+.@.W W W ",
"#.#.$.%.&.*.=.-.;.-.>.,.'.%.).#.",
"!.!.$.~.{.].;.-.;.-.;.{.{.%.$.!.",
").).).).).).).).).).).).).).).).",
"$.$.$.$.$.$.$.$.$.$.$.$.$.$.$.$.",
"^.^.^.^.^.^.^.^.^.^.^.^.^.^.^.^.",
"/./././././././././././././././.",
"$.$.$.$.$.$.$.$.$.$.$.$.$.$.$.$."};
