/* XPM */
static char * close_prelight_xpm[] = {
"16 22 128 2",
"  	c None",
". 	c #6D6D6D",
"+ 	c #E2E2E2",
"@ 	c #C5C5C5",
"# 	c #C3C3C3",
"$ 	c #C2C2C2",
"% 	c #C2BFBD",
"& 	c #C3C2C2",
"* 	c #BDA496",
"= 	c #B88B71",
"- 	c #C1B3AC",
"; 	c #B28876",
"> 	c #B1816D",
", 	c #C3BFBE",
"' 	c #C1C1C1",
") 	c #BAA294",
"! 	c #A25C32",
"~ 	c #A64712",
"{ 	c #B37450",
"] 	c #BEAFA7",
"^ 	c #C0C0C0",
"/ 	c #B58875",
"( 	c #A1431C",
"_ 	c #96320C",
": 	c #A9725E",
"< 	c #BEB7B6",
"[ 	c #BDB5B1",
"} 	c #AB7452",
"| 	c #A74812",
"1 	c #B14A13",
"2 	c #B44A12",
"3 	c #B86F4A",
"4 	c #B87B5F",
"5 	c #B0471B",
"6 	c #A7390E",
"7 	c #9C320D",
"8 	c #902C0C",
"9 	c #B0948B",
"0 	c #BFBFBF",
"a 	c #B29889",
"b 	c #A95D34",
"c 	c #B54B13",
"d 	c #BE4B13",
"e 	c #BF4912",
"f 	c #BD4614",
"g 	c #B74010",
"h 	c #AE390E",
"i 	c #9D310C",
"j 	c #A57262",
"k 	c #BDBDBD",
"l 	c #BEBEBE",
"m 	c #B4998A",
"n 	c #B56036",
"o 	c #C04A13",
"p 	c #C54912",
"q 	c #C34511",
"r 	c #BC3F10",
"s 	c #AE370E",
"t 	c #AC7361",
"u 	c #BBBBBB",
"v 	c #B7785A",
"w 	c #BE4915",
"x 	c #C44611",
"y 	c #C34211",
"z 	c #BB3C0F",
"A 	c #B04522",
"B 	c #B5978D",
"C 	c #B38B77",
"D 	c #B14E20",
"E 	c #BA4311",
"F 	c #BE4110",
"G 	c #BC3D0F",
"H 	c #B5370E",
"I 	c #A9300C",
"J 	c #A24C35",
"K 	c #B0948D",
"L 	c #BCBCBC",
"M 	c #AD8978",
"N 	c #A14920",
"O 	c #AB3E0F",
"P 	c #B13D0F",
"Q 	c #B13A0F",
"R 	c #AD4320",
"S 	c #A9310C",
"T 	c #A22B0B",
"U 	c #952509",
"V 	c #94422F",
"W 	c #AC928C",
"X 	c #B7B3B0",
"Y 	c #A57057",
"Z 	c #9A380E",
"` 	c #A0380E",
" .	c #A2350D",
"..	c #A96A55",
"+.	c #AF8F86",
"@.	c #A14E38",
"#.	c #952609",
"$.	c #8D2208",
"%.	c #852812",
"&.	c #A4847E",
"*.	c #BABABA",
"=.	c #B2A6A0",
"-.	c #A0644B",
";.	c #94320C",
">.	c #A06551",
",.	c #B3ABA9",
"'.	c #AE9690",
").	c #934938",
"!.	c #852510",
"~.	c #9F746A",
"{.	c #B9B9B9",
"].	c #B6B6B6",
"^.	c #B3B3B3",
"/.	c #A79B97",
"(.	c #9C7A6D",
"_.	c #AEA4A1",
":.	c #B5B5B5",
"<.	c #B4B4B4",
"[.	c #A6938F",
"}.	c #9A7B75",
"|.	c #AFAFAF",
"1.	c #B7B7B7",
"2.	c #B8B8B8",
"3.	c #B2B2B2",
"4.	c #B0B0B0",
"5.	c #AEADAD",
"6.	c #919191",
"7.	c #D5D5D5",
". . . . . . . . . . . . . . . . ",
"+ + + + + + + + + + + + + + + + ",
"@ @ @ @ @ @ @ @ @ @ @ @ @ @ @ @ ",
"# # # # # # # # # # # # # # # # ",
"$ $ $ $ $ % $ $ $ $ $ & $ $ $ $ ",
"$ $ $ $ * = - $ $ $ ; > , $ $ $ ",
"' ' ' ) ! ~ { ] ^ / ( _ : < ' ' ",
"^ ^ [ } | 1 2 3 4 5 6 7 8 9 ^ ^ ",
"0 0 0 a b c d e f g h i j k 0 0 ",
"l l l l m n o p q r s t u l l l ",
"l l l l l v w x y z A B l l l l ",
"k k k k C D E F G H I J K k k k ",
"L L L M N O P Q R S T U V W L L ",
"u u X Y Z `  ...+.@.#.$.%.&.u u ",
"*.*.*.=.-.;.>.,.*.'.).!.~.*.*.*.",
"{.{.].^./.(._.:.<.:.[.}.|.^.1.{.",
"2.2.].3.4.5.<.:.<.:.<.4.4.^.].2.",
"1.1.1.1.1.1.1.1.1.1.1.1.1.1.1.1.",
"].].].].].].].].].].].].].].].].",
"6.6.6.6.6.6.6.6.6.6.6.6.6.6.6.6.",
"7.7.7.7.7.7.7.7.7.7.7.7.7.7.7.7.",
"].].].].].].].].].].].].].].].]."};
