/* XPM */
static char * copy of close_inactive_xpm[] = {
"16 22 39 1",
" 	c None",
".	c #6D6D6D",
"+	c #E2E2E2",
"@	c #B0B0B0",
"#	c #B5B5B5",
"$	c #ABABAB",
"%	c #ACACAC",
"&	c #ADADAD",
"*	c #AAAAAA",
"=	c #9A9A9A",
"-	c #9E9E9E",
";	c #AFAFAF",
">	c #A0A0A0",
",	c #979797",
"'	c #A7A7A7",
")	c #B3B3B3",
"!	c #B2B2B2",
"~	c #9D9D9D",
"{	c #8C8C8C",
"]	c #8F8F8F",
"^	c #9C9C9C",
"/	c #909090",
"(	c #989898",
"_	c #A6A6A6",
":	c #939393",
"<	c #8D8D8D",
"[	c #8E8E8E",
"}	c #929292",
"|	c #A3A3A3",
"1	c #9F9F9F",
"2	c #888888",
"3	c #8A8A8A",
"4	c #A1A1A1",
"5	c #B4B4B4",
"6	c #A4A4A4",
"7	c #959595",
"8	c #9B9B9B",
"9	c #AEAEAE",
"0	c #B1B1B1",
"................",
"++++++++++++++++",
"@@@@@@@@@@@@@@@@",
"################",
"################",
"################",
"@@@@@$%@@&*@@@@@",
"####%=-;@>,')###",
"###!~{]^-/{(;###",
"###)_:<<[{}|!###",
"@@@@&1{223=&@@@@",
"####!4/{{<=&####",
"###56}{]/{[^@###",
"###!4]/>67[=;###",
"@@@@*8~$9|=_;@@@",
"####50!##)0)####",
"################",
"################",
"@@@@@@@@@@@@@@@@",
"################",
"################",
"################"};
