/* XPM */
static char * hide_inactive_xpm[] = {
"16 22 6 1",
" 	c None",
".	c #6D6D6D",
"+	c #E2E2E2",
"@	c #B0B0B0",
"#	c #B5B5B5",
"$	c #979797",
"................",
"++++++++++++++++",
"@@@@@@@@@@@@@@@@",
"################",
"################",
"################",
"@@@@@@@@@@@@@@@@",
"################",
"################",
"################",
"@@@@@@@@@@@@@@@@",
"################",
"################",
"################",
"@@@@@$$$$$$$@@@@",
"################",
"################",
"################",
"@@@@@@@@@@@@@@@@",
"################",
"################",
"################"};
