/* XPM */
static char * hide_prelight_xpm[] = {
"16 22 35 1",
" 	c None",
".	c #6D6D6D",
"+	c #E2E2E2",
"@	c #C5C5C5",
"#	c #C3C3C3",
"$	c #C2C2C2",
"%	c #C1C1C1",
"&	c #C0C0C0",
"*	c #BFBFBF",
"=	c #C2BFB6",
"-	c #BEBEBE",
";	c #C9BFA4",
">	c #C9BEA4",
",	c #D1BF94",
"'	c #D1BF92",
")	c #D0BF93",
"!	c #D1BF93",
"~	c #BDBDBD",
"{	c #D7BF81",
"]	c #D8C082",
"^	c #D8BF81",
"/	c #BCBCBC",
"(	c #DFC072",
"_	c #DFC070",
":	c #BBBBBB",
"<	c #787878",
"[	c #E7C161",
"}	c #E7C05F",
"|	c #BABABA",
"1	c #B9B9B9",
"2	c #B8B8B8",
"3	c #B7B7B7",
"4	c #B6B6B6",
"5	c #919191",
"6	c #D5D5D5",
"................",
"++++++++++++++++",
"@@@@@@@@@@@@@@@@",
"################",
"$$$$$$$$$$$$$$$$",
"$$$$$$$$$$$$$$$$",
"%%%%%%%%%%%%%%%%",
"&&&&&&&&&&&&&&&&",
"***==========***",
"---;;;>>>>>>;---",
"---,,,,,,')!)---",
"~~~{]{{]]]]^{~~~",
"///(__(_(_(((///",
"::<[}[}[[[[[[<::",
"||<<<<<<<<<<<<||",
"1111111111111111",
"2222222222222222",
"3333333333333333",
"4444444444444444",
"5555555555555555",
"6666666666666666",
"4444444444444444"};
