/* XPM */
static char * hide_pressed_xpm[] = {
"16 22 21 1",
" 	c None",
".	c #6D6D6D",
"+	c #E2E2E2",
"@	c #C5C5C5",
"#	c #C3C3C3",
"$	c #C2C2C2",
"%	c #C1C1C1",
"&	c #C0C0C0",
"*	c #BFBFBF",
"=	c #BEBEBE",
"-	c #BDBDBD",
";	c #BCBCBC",
">	c #BBBBBB",
",	c #38352D",
"'	c #BABABA",
")	c #B9B9B9",
"!	c #B8B8B8",
"~	c #B7B7B7",
"{	c #B6B6B6",
"]	c #919191",
"^	c #D5D5D5",
"................",
"++++++++++++++++",
"@@@@@@@@@@@@@@@@",
"################",
"$$$$$$$$$$$$$$$$",
"$$$$$$$$$$$$$$$$",
"%%%%%%%%%%%%%%%%",
"&&&&&&&&&&&&&&&&",
"****************",
"================",
"================",
"----------------",
";;;;;;;;;;;;;;;;",
">>,>>>>>>>>>>,>>",
"'',,,,,,,,,,,,''",
"))))))))))))))))",
"!!!!!!!!!!!!!!!!",
"~~~~~~~~~~~~~~~~",
"{{{{{{{{{{{{{{{{",
"]]]]]]]]]]]]]]]]",
"^^^^^^^^^^^^^^^^",
"{{{{{{{{{{{{{{{{"};
