/* XPM */
static char * maximize_pressed_xpm[] = {
"16 22 46 1",
" 	c None",
".	c #6D6D6D",
"+	c #E2E2E2",
"@	c #C5C5C5",
"#	c #C3C3C3",
"$	c #C2C2C2",
"%	c #3A3A3A",
"&	c #38352D",
"*	c #C1C1C1",
"=	c #C0A349",
"-	c #C0A24A",
";	c #C0A34A",
">	c #C0A249",
",	c #BDA254",
"'	c #C0C0C0",
")	c #BDA253",
"!	c #BCA254",
"~	c #BDA353",
"{	c #BDA354",
"]	c #BCA253",
"^	c #B8A363",
"/	c #BFBFBF",
"(	c #B8A262",
"_	c #B8A263",
":	c #B2A176",
"<	c #BEBEBE",
"[	c #B2A275",
"}	c #B2A276",
"|	c #ABA18A",
"1	c #ABA28A",
"2	c #B2A175",
"3	c #BDBDBD",
"4	c #BCA354",
"5	c #B1A275",
"6	c #B1A175",
"7	c #BCBCBC",
"8	c #B8A362",
"9	c #BBBBBB",
"0	c #BCA353",
"a	c #BABABA",
"b	c #B9B9B9",
"c	c #B8B8B8",
"d	c #B7B7B7",
"e	c #B6B6B6",
"f	c #919191",
"g	c #D5D5D5",
"................",
"++++++++++++++++",
"@@@@@@@@@@@@@@@@",
"################",
"$$$$$$$$$$$$$$$$",
"$$%%&&&&&&&&&&$$",
"**%=--=;>;-;,&**",
"''&=)!~{],,^~&''",
"//&;)(((_^:()&//",
"<<&-{([[}|[(]&<<",
"<<&;)(11||2()&<<",
"33&;4565}25_)&33",
"77&=__(8((((,&77",
"99%~,~),0~4{~&99",
"aa%%&&&&&&&&&&aa",
"bbbbbbbbbbbbbbbb",
"cccccccccccccccc",
"dddddddddddddddd",
"eeeeeeeeeeeeeeee",
"ffffffffffffffff",
"gggggggggggggggg",
"eeeeeeeeeeeeeeee"};
