/* XPM */
static char * maximize_prelight_xpm[] = {
"16 22 38 1",
" 	c None",
".	c #6D6D6D",
"+	c #E2E2E2",
"@	c #C5C5C5",
"#	c #C3C3C3",
"$	c #C2C2C2",
"%	c #787878",
"&	c #C1C1C1",
"*	c #D7BE93",
"=	c #D7BE92",
"-	c #C0C0C0",
";	c #D6BE94",
">	c #D6BE93",
",	c #BFBFBF",
"'	c #D5BC93",
")	c #D5BD94",
"!	c #D5BD93",
"~	c #BEBEBE",
"{	c #D4BD94",
"]	c #D4BC95",
"^	c #D3BC95",
"/	c #D4BD95",
"(	c #D3BD96",
"_	c #BDBDBD",
":	c #D3BB97",
"<	c #BCBCBC",
"[	c #D2BB96",
"}	c #D1BC98",
"|	c #BBBBBB",
"1	c #D1BC97",
"2	c #D1BB98",
"3	c #BABABA",
"4	c #B9B9B9",
"5	c #B8B8B8",
"6	c #B7B7B7",
"7	c #B6B6B6",
"8	c #919191",
"9	c #D5D5D5",
"................",
"++++++++++++++++",
"@@@@@@@@@@@@@@@@",
"################",
"$$$$$$$$$$$$$$$$",
"$$%%$$$$$$$$%%$$",
"&&%*****=*=**%&&",
"---;;>;;>>;>>---",
",,,')!))))!)!,,,",
"~~~{{{{{]{{{{~~~",
"~~~]]^/(]^]^(~~~",
"___(((::((:((___",
"<<<[}}[}}}[}}<<<",
"||%1222212221%||",
"33%%33333333%%33",
"4444444444444444",
"5555555555555555",
"6666666666666666",
"7777777777777777",
"8888888888888888",
"9999999999999999",
"7777777777777777"};
