/* XPM */
static char * menu_pressed_xpm[] = {
"20 22 128 2",
"  	c None",
". 	c #6D6D6D",
"+ 	c #E2E2E2",
"@ 	c #C5C5C5",
"# 	c #C4C4C4",
"$ 	c #C2C2C2",
"% 	c #B8B8B8",
"& 	c #828AA8",
"* 	c #4D5367",
"= 	c #232C41",
"- 	c #0C132C",
"; 	c #05112B",
"> 	c #000C2A",
", 	c #000A27",
"' 	c #000A26",
") 	c #05122E",
"! 	c #2D364F",
"~ 	c #434C63",
"{ 	c #60657D",
"] 	c #858BA8",
"^ 	c #BABABA",
"/ 	c #C1C1C1",
"( 	c #7C7C7C",
"_ 	c #0D549D",
": 	c #669ACE",
"< 	c #87B4DB",
"[ 	c #93B8DD",
"} 	c #A2C3E0",
"| 	c #A7C8E1",
"1 	c #A7C7E4",
"2 	c #AAC7E6",
"3 	c #A9C7E7",
"4 	c #A9C7E4",
"5 	c #A8C8E2",
"6 	c #A5C4E0",
"7 	c #A2BFDB",
"8 	c #93B4D2",
"9 	c #7A99BA",
"0 	c #747474",
"a 	c #A4A4A4",
"b 	c #00478A",
"c 	c #5A94CF",
"d 	c #99BDE2",
"e 	c #9EBBE4",
"f 	c #A1BDE2",
"g 	c #9FBEE4",
"h 	c #9FBFE0",
"i 	c #9CBDE5",
"j 	c #9FBFE4",
"k 	c #A1BEE2",
"l 	c #9FBBE4",
"m 	c #A8A8A8",
"n 	c #004594",
"o 	c #256BC2",
"p 	c #6A9ED3",
"q 	c #7FAFDC",
"r 	c #80B0E1",
"s 	c #83B7DC",
"t 	c #86B2DB",
"u 	c #85B1DE",
"v 	c #81ADDA",
"w 	c #83B3E0",
"x 	c #004A9E",
"y 	c #3F7FC8",
"z 	c #5088CD",
"A 	c #5391D0",
"B 	c #5494D5",
"C 	c #5395D8",
"D 	c #5594DA",
"E 	c #579BD4",
"F 	c #578FD4",
"G 	c #2864A1",
"H 	c #5498D1",
"I 	c #649ED9",
"J 	c #65A3E2",
"K 	c #69A9EA",
"L 	c #6CACED",
"M 	c #69A9F2",
"N 	c #6DABEA",
"O 	c #6EAAE7",
"P 	c #456286",
"Q 	c #5F99D4",
"R 	c #6EA2E3",
"S 	c #7BB7F4",
"T 	c #8DCAFF",
"U 	c #99CBFF",
"V 	c #93C8FF",
"W 	c #96CAFF",
"X 	c #96CFFF",
"Y 	c #B0B0B0",
"Z 	c #4C749D",
"` 	c #73B3F4",
" .	c #89C8FF",
"..	c #AFD0FF",
"+.	c #BFDEFF",
"@.	c #CBE3FF",
"#.	c #C1DEFF",
"$.	c #C3E0FF",
"%.	c #6B7378",
"&.	c #CECECD",
"*.	c #A1A1A1",
"=.	c #587698",
"-.	c #71A9E2",
";.	c #BBDEFF",
">.	c #E3F3FF",
",.	c #E3F6FF",
"'.	c #DDF1FF",
").	c #E3F5FF",
"!.	c #E1F1FF",
"~.	c #6A7078",
"{.	c #D3D3D3",
"].	c #CBCBCB",
"^.	c #838383",
"/.	c #656565",
"(.	c #4A4A4A",
"_.	c #414141",
":.	c #434343",
"<.	c #434242",
"[.	c #535352",
"}.	c #737373",
"|.	c #7B7B7B",
"1.	c #B9B9B9",
"2.	c #D1D1D1",
"3.	c #D8D8D8",
"4.	c #DADADA",
"5.	c #919191",
"6.	c #D5D5D5",
"7.	c #B5B5B5",
". . . . . . . . . . . . . . . . . . . . ",
"+ + + + + + + + + + + + + + + + + + + + ",
"@ @ @ @ @ @ @ @ @ @ @ @ @ @ @ @ @ @ @ @ ",
"# # # # # # # # # # # # # # # # # # # # ",
"$ $ % & * = - ; > , ' > ) ! ~ { ] ^ $ $ ",
"/ ( _ : < [ } | 1 2 3 4 5 6 7 8 9 0 ( / ",
"a b c d e f g h h i i h h j k l d c b m ",
"n o p q r s t u v w w v u t s r q p o n ",
"x y z A B C D E F B B F E D C B A z y x ",
"G H I J K L M N O M M O N M L K J I H G ",
"P Q R S T U V U W X X W U V U T S R Q P ",
"Y Z `  ...+.@.@.#.$.$.#.@.@.+... .` Z %.",
"&.*.=.-.;.>.,.'.).!.!.).'.,.>.;.-.=.~.{.",
"^ ].% ^./.(._.:.:.:.:.:.:.:.<.[.}.|.].^ ",
"1.1.$ 2.3.4.4.4.4.4.4.4.4.4.4.3.2.$ 1.1.",
"% % % % % % % % % % % % % % % % % % % % ",
"% % % % % % % % % % % % % % % % % % % % ",
"% % % % % % % % % % % % % % % % % % % % ",
"% % % % % % % % % % % % % % % % % % % % ",
"5.5.5.5.5.5.5.5.5.5.5.5.5.5.5.5.5.5.5.5.",
"6.6.6.6.6.6.6.6.6.6.6.6.6.6.6.6.6.6.6.6.",
"7.7.7.7.7.7.7.7.7.7.7.7.7.7.7.7.7.7.7.7."};
