/* XPM */
static char * menu_pressed_cyan_xpm[] = {
"20 22 118 2",
"  	c None",
". 	c #6D6D6D",
"+ 	c #E2E2E2",
"@ 	c #C5C5C5",
"# 	c #C4C4C4",
"$ 	c #C2C2C2",
"% 	c #B8B8B8",
"& 	c #828AA8",
"* 	c #4D5367",
"= 	c #232C41",
"- 	c #0C132C",
"; 	c #05112B",
"> 	c #000C2A",
", 	c #000A27",
"' 	c #000A26",
") 	c #05122E",
"! 	c #2D364F",
"~ 	c #434C63",
"{ 	c #60657D",
"] 	c #858BA8",
"^ 	c #BABABA",
"/ 	c #C1C1C1",
"( 	c #7C7C7C",
"_ 	c #195283",
": 	c #649AA0",
"< 	c #7EADA8",
"[ 	c #84B1AC",
"} 	c #92B9B5",
"| 	c #97BCB8",
"1 	c #96BBB8",
"2 	c #94BBB7",
"3 	c #8DB6B2",
"4 	c #82AFAA",
"5 	c #659C97",
"6 	c #557975",
"7 	c #6F7E7C",
"8 	c #A4A4A4",
"9 	c #0B4575",
"0 	c #5E938E",
"a 	c #8CB5B1",
"b 	c #8BB4B0",
"c 	c #273E3B",
"d 	c #9CA9A7",
"e 	c #004594",
"f 	c #3A687D",
"g 	c #689F99",
"h 	c #7BAAA5",
"i 	c #80ADA9",
"j 	c #7DACA7",
"k 	c #78A9A4",
"l 	c #426763",
"m 	c #1C4054",
"n 	c #004A9E",
"o 	c #4F7D7D",
"p 	c #578883",
"q 	c #5C8F8A",
"r 	c #5D928D",
"s 	c #619892",
"t 	c #507D79",
"u 	c #284345",
"v 	c #2864A1",
"w 	c #5E9693",
"x 	c #679E98",
"y 	c #6BA09B",
"z 	c #71A49F",
"A 	c #75A6A1",
"B 	c #73A6A1",
"C 	c #72A5A0",
"D 	c #5F9690",
"E 	c #3C6060",
"F 	c #456286",
"G 	c #6199A6",
"H 	c #6CA19C",
"I 	c #81AEAA",
"J 	c #98BDB9",
"K 	c #9ABFBB",
"L 	c #629994",
"M 	c #41626A",
"N 	c #B0B0B0",
"O 	c #4B7491",
"P 	c #7CABA6",
"Q 	c #93BAB6",
"R 	c #A1C2BF",
"S 	c #AFCCC9",
"T 	c #B7D0CE",
"U 	c #B0CDCA",
"V 	c #B2CDCB",
"W 	c #4A736F",
"X 	c #637477",
"Y 	c #CECECD",
"Z 	c #A1A1A1",
"` 	c #54768C",
" .	c #72A6AD",
"..	c #AECBC8",
"+.	c #C8DBD9",
"@.	c #CADDDB",
"#.	c #C4D9D7",
"$.	c #C5DAD8",
"%.	c #4E777A",
"&.	c #607275",
"*.	c #D3D3D3",
"=.	c #CBCBCB",
"-.	c #838383",
";.	c #656565",
">.	c #4A4A4A",
",.	c #414141",
"'.	c #434343",
").	c #434242",
"!.	c #535352",
"~.	c #737373",
"{.	c #7B7B7B",
"].	c #B9B9B9",
"^.	c #D1D1D1",
"/.	c #D8D8D8",
"(.	c #DADADA",
"_.	c #919191",
":.	c #D5D5D5",
"<.	c #B5B5B5",
". . . . . . . . . . . . . . . . . . . . ",
"+ + + + + + + + + + + + + + + + + + + + ",
"@ @ @ @ @ @ @ @ @ @ @ @ @ @ @ @ @ @ @ @ ",
"# # # # # # # # # # # # # # # # # # # # ",
"$ $ % & * = - ; > , ' > ) ! ~ { ] ^ $ $ ",
"/ ( _ : < [ } | 1 | 1 1 | 2 3 4 5 6 7 / ",
"8 9 0 a b 3 a 3 3 a a 3 3 3 3 b a 0 c d ",
"e f g h h i j j k < < k j j i h h g l m ",
"n o p q r 0 0 s q r r q s 0 0 r q p t u ",
"v w x y z A z B C z z C B z A z y x D E ",
"F G H I 2 J 1 J 1 K K 1 J 1 J 2 I H L M ",
"N O P Q R S T T U V V U T T S R Q P W X ",
"Y Z `  ...+.@.#.@.$.$.@.#.@.+...C %.&.*.",
"^ =.% -.;.>.,.'.'.'.'.'.'.'.).!.~.{.=.^ ",
"].].$ ^./.(.(.(.(.(.(.(.(.(.(./.^.$ ].].",
"% % % % % % % % % % % % % % % % % % % % ",
"% % % % % % % % % % % % % % % % % % % % ",
"% % % % % % % % % % % % % % % % % % % % ",
"% % % % % % % % % % % % % % % % % % % % ",
"_._._._._._._._._._._._._._._._._._._._.",
":.:.:.:.:.:.:.:.:.:.:.:.:.:.:.:.:.:.:.:.",
"<.<.<.<.<.<.<.<.<.<.<.<.<.<.<.<.<.<.<.<."};
