/* XPM */
static char * title_2_inactive_xpm[] = {
"10 22 5 1",
" 	c None",
".	c #6D6D6D",
"+	c #E2E2E2",
"@	c #B0B0B0",
"#	c #B5B5B5",
"..........",
"++++++++++",
"@@@@@@@@@@",
"##########",
"##########",
"##########",
"@@@@@@@@@@",
"##########",
"##########",
"##########",
"@@@@@@@@@@",
"##########",
"##########",
"##########",
"@@@@@@@@@@",
"##########",
"##########",
"##########",
"@@@@@@@@@@",
"##########",
"##########",
"##########"};
